<svg width="36" height="38" viewBox="0 0 36 38" fill="none" xmlns="http://www.w3.org/2000/svg">
  <!-- Star 2 (top left) -->
  <g transform="translate(0, 0)">
    <path d="M10.5 0C10.5 0 11.0793 5.40743 13.336 7.66405C15.5926 9.92066 21 10.5 21 10.5C21 10.5 15.5926 11.0793 13.336 13.336C11.0793 15.5926 10.5 21 10.5 21C10.5 21 9.92066 15.5926 7.66405 13.336C5.40743 11.0793 0 10.5 0 10.5C0 10.5 5.40743 9.92066 7.66405 7.66405C9.92066 5.40743 10.5 0 10.5 0Z" fill="#160211"/>
  </g>
  
  <!-- Star 3 (top right) -->
  <g transform="translate(15, 7.91)">
    <path d="M10.5 0C10.5 0 11.0793 5.40743 13.336 7.66405C15.5926 9.92066 21 10.5 21 10.5C21 10.5 15.5926 11.0793 13.336 13.336C11.0793 15.5926 10.5 21 10.5 21C10.5 21 9.92066 15.5926 7.66405 13.336C5.40743 11.0793 0 10.5 0 10.5C0 10.5 5.40743 9.92066 7.66405 7.66405C9.92066 5.40743 10.5 0 10.5 0Z" fill="#160211"/>
  </g>
  
  <!-- Star 1 (bottom left) -->
  <g transform="translate(0, 16.83)">
    <path d="M10.5 0C10.5 0 11.0793 5.40743 13.336 7.66405C15.5926 9.92066 21 10.5 21 10.5C21 10.5 15.5926 11.0793 13.336 13.336C11.0793 15.5926 10.5 21 10.5 21C10.5 21 9.92066 15.5926 7.66405 13.336C5.40743 11.0793 0 10.5 0 10.5C0 10.5 5.40743 9.92066 7.66405 7.66405C9.92066 5.40743 10.5 0 10.5 0Z" fill="#160211"/>
  </g>
</svg>